<?xml version="1.0" encoding="UTF-8"?>
<!-- חלק אייקון (social-signal.svg) – קובץ SVG עבור סמל הרשת החברתית החדש -->
<svg xmlns="http://www.w3.org/2000/svg" viewBox="0 0 256 256">
  <!-- חלק אייקון (social-signal.svg) – רקע מעגלי עם גרדיאנט המדגיש פעילות רשת -->
  <defs>
    <radialGradient id="pulse" cx="50%" cy="40%" r="70%">
      <stop offset="0%" stop-color="#3EB5FF" />
      <stop offset="65%" stop-color="#2954FF" />
      <stop offset="100%" stop-color="#1B1F5E" />
    </radialGradient>
  </defs>
  <circle cx="128" cy="128" r="120" fill="url(#pulse)" />

  <!-- חלק אייקון (social-signal.svg) – בועת דיבור כסמל לשיחה חברתית -->
  <path fill="rgba(255,255,255,0.92)" d="M74 82c0-18.2 17.8-32 42.3-32h63.4c24.5 0 42.3 13.8 42.3 32v28.7c0 18.1-17.8 32.3-42.3 32.3H152l-27.6 21.2c-4.4 3.4-8.4 0.8-8.4-4.8v-16.4H116.3C91.8 175 74 160 74 141.7z" />

  <!-- חלק אייקון (social-signal.svg) – שלושה קווים דינמיים הממחישים חיבור וזרימת מידע -->
  <g fill="none" stroke="#122C8A" stroke-linecap="round" stroke-width="10">
    <path d="M84 176c22 18 68 18 90 0" />
    <path d="M96 196c18 14 54 14 72 0" stroke-opacity="0.65" />
    <path d="M108 214c14 10 38 10 52 0" stroke-opacity="0.35" />
  </g>

  <!-- חלק אייקון (social-signal.svg) – כוכב רשת המציין התרעות והתחדשות -->
  <path fill="#FFCC4D" d="M185.2 66.8l7 13.9 15.4 2.2c4.5 0.7 6.3 6.2 3 9.4l-11.2 10.9 2.6 15.3c0.8 4.5-4 7.9-8 5.8l-13.7-7.2-13.7 7.2c-4 2.1-8.8-1.3-8-5.8l2.6-15.3-11.2-10.9c-3.3-3.2-1.5-8.7 3-9.4l15.4-2.2 7-13.9c2-4.1 7.8-4.1 9.8 0z" />
</svg>
