<?xml version="1.0" encoding="UTF-8"?>
<!-- חלק אייקון (yalla-signal.svg) – SVG ייעודי לרשת יאללה עם האות Y בעיצוב מודרני -->
<svg xmlns="http://www.w3.org/2000/svg" viewBox="0 0 256 256">
  <!-- חלק אייקון (yalla-signal.svg) – גרעין צבעוני שמייצר עומק סביבתי -->
  <defs>
    <linearGradient id="yallaGlow" x1="15%" y1="10%" x2="85%" y2="90%">
      <stop offset="0%" stop-color="#4AF3FF" />
      <stop offset="55%" stop-color="#3A6BFF" />
      <stop offset="100%" stop-color="#0B0E33" />
    </linearGradient>
    <radialGradient id="yallaPulse" cx="50%" cy="35%" r="65%">
      <stop offset="0%" stop-color="rgba(255,255,255,0.45)" />
      <stop offset="70%" stop-color="rgba(58,107,255,0.0)" />
    </radialGradient>
  </defs>
  <rect width="256" height="256" rx="72" fill="url(#yallaGlow)" />
  <rect width="256" height="256" rx="72" fill="url(#yallaPulse)" />

  <!-- חלק אייקון (yalla-signal.svg) – האות Y בסגנון דינמי המזכיר רשתות חברתיות -->
  <path
    d="M73 54c8 0 15 4 19 11l36 62 37-62c4-7 11-11 19-11h8c14 0 23 15 16 28l-47 88v49c0 8-6 14-14 14h-26c-8 0-14-6-14-14v-49L49 82C42 69 51 54 65 54z"
    fill="#FFFFFF"
    stroke="#0D1A66"
    stroke-width="6"
    stroke-linejoin="round"
  />

  <!-- חלק אייקון (yalla-signal.svg) – נגיעות דופק המדגישות פעילות רשת -->
  <g stroke="#7CE5FF" stroke-width="6" stroke-linecap="round" stroke-opacity="0.75">
    <path d="M74 206c26 16 82 16 108 0" />
    <path d="M86 224c20 12 60 12 80 0" stroke-opacity="0.45" />
  </g>
</svg>
